<?xml version="1.0" encoding="utf-8"?>
<!-- Generator: Adobe Illustrator 16.0.0, SVG Export Plug-In . SVG Version: 6.00 Build 0)  -->
<!DOCTYPE svg PUBLIC "-//W3C//DTD SVG 1.1//EN" "http://www.w3.org/Graphics/SVG/1.1/DTD/svg11.dtd">
<svg version="1.1" id="Capa_1" xmlns="http://www.w3.org/2000/svg" xmlns:xlink="http://www.w3.org/1999/xlink" x="0px" y="0px"
	 width="198.807px" height="38.559px" viewBox="0 0 198.807 38.559" enable-background="new 0 0 198.807 38.559"
	 xml:space="preserve">
<g>
	<g>
		<path fill="#3E4830" d="M65.954,22.984c0,1.264,0.033,1.813,0.188,1.969c0.138,0.139,0.361,0.198,1.032,0.198
			c0.456,0,0.834-0.01,1.039-0.259c0.113-0.138,0.199-0.353,0.225-0.515c0.008-0.07,0.026-0.112,0.077-0.112
			c0.043,0,0.054,0.033,0.054,0.128c0,0.096-0.063,0.61-0.131,0.86c-0.06,0.198-0.085,0.232-0.541,0.232
			c-0.62,0-1.067-0.018-1.428-0.026c-0.361-0.017-0.627-0.026-0.878-0.026c-0.032,0-0.18,0.01-0.353,0.01
			c-0.171,0.009-0.362,0.017-0.489,0.017c-0.095,0-0.14-0.017-0.14-0.068c0-0.025,0.019-0.052,0.072-0.052
			c0.077,0,0.18-0.018,0.257-0.034c0.172-0.034,0.214-0.224,0.248-0.473c0.045-0.361,0.045-1.042,0.045-1.865v-1.515
			c0-1.343,0-1.582-0.017-1.857c-0.018-0.293-0.086-0.43-0.372-0.491c-0.066-0.017-0.213-0.023-0.292-0.023
			c-0.035,0-0.07-0.02-0.07-0.053c0-0.053,0.045-0.069,0.14-0.069c0.387,0,0.928,0.026,0.971,0.026c0.045,0,0.672-0.026,0.93-0.026
			c0.094,0,0.136,0.017,0.136,0.069c0,0.033-0.033,0.053-0.068,0.053c-0.062,0-0.18,0.007-0.283,0.023
			c-0.251,0.043-0.319,0.189-0.335,0.491c-0.018,0.275-0.018,0.515-0.018,1.857V22.984z"/>
		<path fill="#3E4830" d="M72.524,18.838c1.936,0,3.381,1.222,3.381,3.226c0,1.928-1.36,3.517-3.434,3.517
			c-2.355,0-3.336-1.831-3.336-3.38C69.136,20.809,70.152,18.838,72.524,18.838z M72.706,25.254c0.773,0,2.374-0.446,2.374-2.949
			c0-2.064-1.257-3.174-2.615-3.174c-1.435,0-2.51,0.945-2.51,2.829C69.955,23.964,71.158,25.254,72.706,25.254z"/>
		<path fill="#3E4830" d="M77.44,25.35c-0.121-0.061-0.131-0.096-0.131-0.328c0-0.43,0.035-0.773,0.045-0.911
			c0.009-0.094,0.024-0.137,0.067-0.137c0.052,0,0.063,0.025,0.063,0.093c0,0.078,0,0.199,0.024,0.318
			c0.129,0.637,0.696,0.878,1.274,0.878c0.824,0,1.229-0.594,1.229-1.144c0-0.593-0.25-0.938-0.99-1.549l-0.388-0.317
			c-0.911-0.748-1.119-1.282-1.119-1.866c0-0.921,0.69-1.549,1.783-1.549c0.335,0,0.584,0.035,0.799,0.086
			c0.164,0.035,0.23,0.044,0.302,0.044c0.068,0,0.085,0.018,0.085,0.061s-0.033,0.326-0.033,0.911c0,0.137-0.019,0.197-0.063,0.197
			c-0.052,0-0.061-0.043-0.07-0.111c-0.007-0.103-0.058-0.335-0.11-0.43c-0.051-0.095-0.285-0.455-1.075-0.455
			c-0.594,0-1.058,0.37-1.058,0.996c0,0.49,0.225,0.801,1.049,1.445l0.241,0.188c1.013,0.8,1.255,1.332,1.255,2.021
			c0,0.354-0.136,1.007-0.729,1.43c-0.371,0.256-0.836,0.359-1.299,0.359C78.189,25.58,77.791,25.52,77.44,25.35z"/>
	</g>
	<path fill="#3E4830" d="M2.996,28.226C0.594,26.069,0,23.244,0,20.891c0-1.661,0.569-4.56,2.774-6.766
		c1.485-1.486,3.741-2.651,7.557-2.651c0.991,0,2.379,0.075,3.593,0.297c0.942,0.174,1.737,0.322,2.529,0.371
		c0.271,0.026,0.321,0.125,0.321,0.274c0,0.197-0.073,0.494-0.124,1.388c-0.047,0.817-0.047,2.181-0.075,2.552
		c-0.022,0.371-0.075,0.521-0.223,0.521c-0.171,0-0.198-0.173-0.198-0.521c0-0.967-0.395-1.982-1.039-2.527
		c-0.869-0.744-2.777-1.412-4.958-1.412c-3.296,0-4.832,0.965-5.7,1.808c-1.811,1.736-2.231,3.94-2.231,6.469
		c0,4.733,3.645,9.068,8.946,9.068c1.858,0,3.321-0.224,4.314-1.238c0.519-0.546,0.839-1.635,0.915-2.081
		c0.051-0.273,0.098-0.372,0.248-0.372c0.124,0,0.174,0.172,0.174,0.372c0,0.174-0.296,2.328-0.544,3.171
		c-0.15,0.472-0.199,0.521-0.647,0.719c-0.988,0.396-2.874,0.57-4.459,0.57C7.458,30.901,4.954,29.984,2.996,28.226z"/>
	<path fill="#3E4830" d="M25.513,15.041c0.274-0.692,0.372-0.817,0.521-0.817c0.223,0,0.295,0.297,0.52,0.771
		c0.398,0.891,3.891,9.589,5.228,12.785c0.793,1.883,1.388,2.155,1.859,2.305c0.321,0.099,0.644,0.124,0.868,0.124
		c0.124,0,0.272,0.049,0.272,0.173s-0.248,0.174-0.496,0.174c-0.323,0-1.933,0-3.444-0.05c-0.42-0.026-0.77-0.026-0.77-0.149
		c0-0.099,0.049-0.099,0.15-0.147c0.122-0.051,0.346-0.224,0.199-0.569l-1.958-4.834c-0.049-0.099-0.073-0.123-0.198-0.123h-5.031
		c-0.099,0-0.175,0.05-0.226,0.173l-1.237,3.371c-0.199,0.52-0.321,1.041-0.321,1.413c0,0.42,0.372,0.569,0.742,0.569h0.199
		c0.175,0,0.226,0.073,0.226,0.173c0,0.124-0.126,0.174-0.323,0.174c-0.522,0-1.711-0.076-1.957-0.076
		c-0.226,0-1.314,0.076-2.207,0.076c-0.272,0-0.421-0.05-0.421-0.174c0-0.1,0.098-0.173,0.197-0.173c0.15,0,0.47-0.025,0.644-0.051
		c0.992-0.124,1.415-0.866,1.833-1.932L25.513,15.041z M27.941,23.814c0.1,0,0.1-0.05,0.073-0.148l-2.156-5.773
		c-0.124-0.323-0.246-0.323-0.372,0l-2.03,5.773c-0.026,0.099,0,0.148,0.073,0.148H27.941z"/>
	<path fill="#3E4830" d="M36.038,30.257c-0.297-0.148-0.323-0.224-0.323-0.792c0-1.041,0.098-1.884,0.123-2.23
		c0-0.224,0.051-0.347,0.176-0.347c0.122,0,0.197,0.073,0.197,0.247s0,0.471,0.073,0.769c0.349,1.536,1.985,2.081,3.444,2.081
		c2.156,0,3.271-1.215,3.271-2.8c0-1.512-0.817-2.229-2.751-3.668l-0.99-0.743c-2.353-1.76-3.123-3.048-3.123-4.51
		c0-2.479,1.957-3.966,4.834-3.966c0.864,0,1.733,0.125,2.252,0.249c0.422,0.099,0.597,0.099,0.77,0.099s0.222,0.023,0.222,0.148
		c0,0.099-0.098,0.794-0.098,2.23c0,0.322-0.024,0.472-0.175,0.472c-0.148,0-0.171-0.1-0.197-0.273
		c-0.023-0.248-0.197-0.818-0.323-1.041c-0.148-0.247-0.866-1.04-2.823-1.04c-1.587,0-2.899,0.793-2.899,2.279
		c0,1.338,0.668,2.106,2.824,3.568l0.62,0.421c2.65,1.809,3.568,3.271,3.568,5.08c0,1.239-0.47,2.578-2.032,3.594
		c-0.917,0.594-2.28,0.744-3.472,0.744C38.192,30.828,36.928,30.678,36.038,30.257z"/>
	<path fill="#3E4830" d="M54.17,15.041c0.272-0.692,0.372-0.817,0.52-0.817c0.226,0,0.295,0.297,0.521,0.771
		c0.396,0.891,3.889,9.589,5.228,12.785c0.793,1.883,1.388,2.155,1.859,2.305c0.322,0.099,0.645,0.124,0.868,0.124
		c0.123,0,0.272,0.049,0.272,0.173s-0.25,0.174-0.496,0.174c-0.323,0-1.933,0-3.444-0.05c-0.423-0.026-0.771-0.026-0.771-0.149
		c0-0.099,0.051-0.099,0.15-0.147c0.122-0.051,0.346-0.224,0.197-0.569l-1.957-4.834c-0.049-0.099-0.074-0.123-0.199-0.123h-5.031
		c-0.098,0-0.173,0.05-0.223,0.173l-1.238,3.371c-0.199,0.52-0.319,1.041-0.319,1.413c0,0.42,0.37,0.569,0.74,0.569h0.201
		c0.172,0,0.222,0.073,0.222,0.173c0,0.124-0.124,0.174-0.322,0.174c-0.521,0-1.71-0.076-1.957-0.076
		c-0.227,0-1.314,0.076-2.208,0.076c-0.269,0-0.42-0.05-0.42-0.174c0-0.1,0.099-0.173,0.201-0.173c0.146,0,0.471-0.025,0.643-0.051
		c0.993-0.124,1.412-0.866,1.834-1.932L54.17,15.041z M56.599,23.814c0.1,0,0.1-0.05,0.075-0.148l-2.158-5.773
		c-0.124-0.323-0.246-0.323-0.372,0l-2.03,5.773c-0.026,0.099,0,0.148,0.074,0.148H56.599z"/>
	<path fill="#3E4830" d="M86.988,25.055c0,4.605,0,6.368-0.854,8.388c-0.597,1.421-1.849,2.757-4.149,4.349
		c-0.37,0.255-0.824,0.569-1.109,0.711c-0.059,0.028-0.115,0.057-0.2,0.057c-0.084,0-0.196-0.057-0.196-0.17
		c0-0.17,0.14-0.256,0.396-0.426c0.341-0.199,0.739-0.541,0.996-0.797c1.847-1.876,2.729-3.383,2.729-10.719v-8.216
		c0-4.435,0-5.232-0.056-6.141c-0.056-0.967-0.285-1.422-1.222-1.621c-0.227-0.058-0.71-0.086-0.967-0.086
		c-0.113,0-0.229-0.057-0.229-0.17c0-0.171,0.142-0.229,0.454-0.229c1.279,0,3.072,0.085,3.214,0.085
		c0.143,0,1.934-0.085,2.786-0.085c0.312,0,0.458,0.058,0.458,0.229c0,0.113-0.117,0.17-0.229,0.17c-0.199,0-0.37,0.028-0.712,0.086
		c-0.767,0.142-0.994,0.625-1.051,1.621c-0.057,0.908-0.057,1.706-0.057,6.141V25.055z"/>
	<path fill="#3E4830" d="M97.624,15.041c0.272-0.692,0.372-0.817,0.521-0.817c0.223,0,0.296,0.297,0.52,0.771
		c0.398,0.891,3.892,9.589,5.229,12.785c0.794,1.883,1.388,2.155,1.859,2.305c0.323,0.099,0.644,0.124,0.868,0.124
		c0.124,0,0.274,0.049,0.274,0.173s-0.25,0.174-0.498,0.174c-0.321,0-1.931,0-3.444-0.05c-0.42-0.026-0.767-0.026-0.767-0.149
		c0-0.099,0.049-0.099,0.147-0.147c0.124-0.051,0.347-0.224,0.199-0.569l-1.959-4.834c-0.051-0.099-0.071-0.123-0.197-0.123h-5.031
		c-0.1,0-0.173,0.05-0.224,0.173l-1.238,3.371c-0.197,0.52-0.321,1.041-0.321,1.413c0,0.42,0.37,0.569,0.742,0.569h0.199
		c0.173,0,0.224,0.073,0.224,0.173c0,0.124-0.125,0.174-0.325,0.174c-0.519,0-1.709-0.076-1.957-0.076
		c-0.222,0-1.311,0.076-2.203,0.076c-0.273,0-0.42-0.05-0.42-0.174c0-0.1,0.098-0.173,0.197-0.173c0.146,0,0.471-0.025,0.644-0.051
		c0.99-0.124,1.411-0.866,1.831-1.932L97.624,15.041z M100.052,23.814c0.099,0,0.099-0.05,0.075-0.148l-2.156-5.773
		c-0.124-0.323-0.248-0.323-0.372,0l-2.032,5.773c-0.024,0.099,0,0.148,0.073,0.148H100.052z"/>
	<path fill="#3E4830" d="M115.978,29.562c2.304,0,2.897-0.372,3.396-0.965c0.223-0.274,0.372-0.845,0.445-1.141
		c0.051-0.198,0.126-0.322,0.251-0.322c0.122,0,0.173,0.074,0.173,0.471c0,0.669-0.298,1.908-0.449,2.428
		c-0.124,0.521-0.146,0.547-0.642,0.547c-3.644,0-7.335-0.102-11.151-0.102c-0.248,0-0.397-0.022-0.397-0.173
		c0-0.098,0.024-0.247,0.297-0.644c3.27-4.733,6.493-9.417,9.492-14.099h-4.607c-1.118,0-2.407-0.026-3.101,0.347
		c-0.768,0.396-1.166,1.164-1.239,1.659c-0.049,0.323-0.173,0.372-0.297,0.372c-0.099,0-0.124-0.1-0.124-0.272
		c0-0.248,0.323-2.155,0.445-2.801c0.026-0.297,0.075-0.396,0.199-0.396c0.199,0,0.347,0.124,0.918,0.149
		c2.081,0.073,3.122,0.048,3.814,0.048h6.096c0.321,0,0.447,0.052,0.447,0.175c0,0.1-0.024,0.248-0.126,0.371
		c-3.17,4.857-6.342,9.566-9.638,14.348H115.978z"/>
	<path fill="#3E4830" d="M141.173,27.828c0.077,0.743,0.223,1.884,1.114,2.182c0.622,0.198,1.192,0.198,1.416,0.198
		c0.098,0,0.173,0.049,0.173,0.147c0,0.123-0.199,0.199-0.447,0.199c-0.496,0-2.924-0.05-3.716-0.124
		c-0.521-0.05-0.622-0.125-0.622-0.223c0-0.075,0.049-0.149,0.152-0.175c0.122-0.023,0.148-0.346,0.098-0.742l-1.04-10.656h-0.051
		l-5.253,10.755c-0.447,0.916-0.569,1.115-0.768,1.115s-0.323-0.199-0.744-0.968c-0.571-1.04-2.007-3.74-2.552-4.88
		c-0.644-1.338-2.404-4.881-2.777-5.749h-0.098l-0.843,9.516c-0.024,0.321-0.024,0.719-0.024,1.064c0,0.322,0.199,0.521,0.522,0.596
		c0.372,0.099,0.693,0.124,0.841,0.124c0.073,0,0.173,0.073,0.173,0.147c0,0.149-0.148,0.199-0.396,0.199
		c-0.817,0-1.858-0.076-2.03-0.076c-0.199,0-1.239,0.076-1.835,0.076c-0.225,0-0.372-0.05-0.372-0.199
		c0-0.074,0.096-0.147,0.222-0.147c0.175,0,0.325-0.025,0.646-0.075c0.72-0.123,0.744-0.892,0.843-1.685l1.585-13.754
		c0.024-0.223,0.124-0.37,0.248-0.37c0.148,0,0.321,0.074,0.447,0.321l6.59,13.084l6.343-13.061c0.1-0.197,0.198-0.345,0.348-0.345
		c0.148,0,0.272,0.173,0.323,0.568L141.173,27.828z"/>
	<path fill="#3E4830" d="M149.713,24.434c0,2.033,0,3.693,0.098,4.56c0.075,0.619,0.148,1.017,0.794,1.115
		c0.323,0.049,0.793,0.1,0.992,0.1c0.122,0,0.17,0.098,0.17,0.173c0,0.098-0.098,0.174-0.347,0.174
		c-1.213,0-2.627-0.076-2.723-0.076c-0.124,0-1.489,0.076-2.158,0.076c-0.222,0-0.346-0.05-0.346-0.174
		c0-0.075,0.049-0.173,0.173-0.173c0.199,0,0.471-0.051,0.668-0.1c0.423-0.099,0.496-0.496,0.573-1.115
		c0.098-0.866,0.121-2.526,0.121-4.56v-3.717c0-3.271,0-3.866-0.049-4.535c-0.049-0.719-0.221-1.04-0.693-1.141
		c-0.248-0.047-0.522-0.073-0.668-0.073c-0.1,0-0.175-0.1-0.175-0.174c0-0.125,0.1-0.173,0.349-0.173
		c0.716,0,2.081,0.048,2.205,0.048c0.096,0,1.51-0.048,2.18-0.048c0.246,0,0.346,0.048,0.346,0.173c0,0.074-0.1,0.174-0.173,0.174
		c-0.15,0-0.296,0-0.543,0.049c-0.597,0.125-0.719,0.422-0.77,1.165c-0.024,0.669-0.024,1.264-0.024,4.535V24.434z"/>
	<path fill="#3E4830" d="M157.785,27.681c0.049,1.734,0.25,2.254,0.843,2.403c0.396,0.099,0.894,0.124,1.091,0.124
		c0.099,0,0.174,0.073,0.174,0.173c0,0.124-0.15,0.174-0.398,0.174c-1.239,0-2.107-0.076-2.304-0.076
		c-0.198,0-1.116,0.076-2.107,0.076c-0.224,0-0.348-0.025-0.348-0.174c0-0.1,0.077-0.173,0.173-0.173
		c0.175,0,0.572-0.025,0.894-0.124c0.546-0.149,0.62-0.719,0.62-2.627V15.389c0-0.842,0.124-1.064,0.297-1.064
		c0.248,0,0.62,0.421,0.844,0.644c0.346,0.348,3.518,3.717,6.887,7.186c2.156,2.23,4.484,4.734,5.155,5.428l-0.224-10.557
		c-0.026-1.363-0.149-1.834-0.819-1.958c-0.395-0.072-0.892-0.099-1.065-0.099c-0.148,0-0.174-0.124-0.174-0.198
		c0-0.124,0.174-0.148,0.422-0.148c0.992,0,2.032,0.048,2.28,0.048s0.967-0.048,1.859-0.048c0.222,0,0.395,0.024,0.395,0.148
		c0,0.074-0.098,0.198-0.246,0.198c-0.099,0-0.272,0-0.522,0.049c-0.717,0.148-0.768,0.571-0.768,1.834l-0.049,12.34
		c0,1.39-0.024,1.513-0.173,1.513c-0.224,0-0.447-0.174-1.66-1.288c-0.224-0.199-3.369-3.296-5.675-5.699
		c-2.528-2.651-4.982-5.229-5.649-5.974L157.785,27.681z"/>
	<path fill="#3E4830" d="M177.007,20.717c0-3.271,0-3.866-0.051-4.535c-0.047-0.719-0.172-1.065-0.892-1.165
		c-0.172-0.022-0.542-0.049-0.743-0.049c-0.074,0-0.173-0.1-0.173-0.174c0-0.125,0.099-0.173,0.345-0.173
		c0.994,0,2.406,0.048,2.53,0.048c0.148,0,4.708,0.025,5.204,0c0.422-0.023,0.818-0.098,0.99-0.122c0.099-0.026,0.201-0.1,0.296-0.1
		c0.075,0,0.101,0.1,0.101,0.198c0,0.148-0.125,0.396-0.174,0.991c-0.023,0.197-0.073,1.14-0.125,1.388
		c-0.022,0.1-0.099,0.223-0.197,0.223c-0.125,0-0.175-0.099-0.175-0.272c0-0.147-0.024-0.495-0.122-0.744
		c-0.15-0.346-0.374-0.494-1.562-0.643c-0.374-0.051-2.901-0.074-3.147-0.074c-0.1,0-0.124,0.074-0.124,0.223v5.725
		c0,0.148,0,0.222,0.124,0.222c0.271,0,3.147,0,3.643-0.05c0.521-0.049,0.843-0.073,1.067-0.296c0.148-0.15,0.248-0.272,0.319-0.272
		c0.075,0,0.125,0.049,0.125,0.173c0,0.123-0.125,0.471-0.174,1.164c-0.047,0.421-0.098,1.214-0.098,1.363
		c0,0.173-0.05,0.396-0.2,0.396c-0.098,0-0.145-0.074-0.145-0.197c0-0.199,0-0.423-0.1-0.694c-0.075-0.298-0.274-0.545-1.116-0.645
		c-0.595-0.074-2.926-0.1-3.297-0.1c-0.124,0-0.148,0.074-0.148,0.148v1.76c0,0.719-0.026,3.172,0,3.593
		c0.049,1.413,0.447,1.686,2.603,1.686c0.569,0,1.609,0,2.18-0.224c0.571-0.247,0.868-0.619,0.99-1.462
		c0.051-0.247,0.101-0.322,0.226-0.322c0.122,0,0.148,0.174,0.148,0.322s-0.174,1.586-0.297,2.032
		c-0.15,0.546-0.372,0.546-1.215,0.546c-1.637,0-2.901-0.05-3.792-0.075c-0.918-0.051-1.487-0.051-1.809-0.051
		c-0.05,0-0.473,0-0.942,0.026c-0.421,0.024-0.917,0.05-1.264,0.05c-0.225,0-0.346-0.05-0.346-0.174
		c0-0.075,0.051-0.173,0.173-0.173c0.197,0,0.471-0.075,0.67-0.1c0.42-0.075,0.47-0.496,0.567-1.115
		c0.125-0.866,0.125-2.526,0.125-4.56V20.717z"/>
	<path fill="#3E4830" d="M189.637,30.232c-0.348-0.174-0.372-0.272-0.372-0.941c0-1.239,0.1-2.23,0.124-2.627
		c0.026-0.273,0.075-0.396,0.199-0.396c0.148,0,0.174,0.074,0.174,0.271c0,0.224,0,0.57,0.075,0.918
		c0.37,1.834,2.004,2.527,3.666,2.527c2.378,0,3.544-1.71,3.544-3.296c0-1.709-0.717-2.702-2.849-4.461l-1.115-0.916
		c-2.627-2.156-3.222-3.692-3.222-5.377c0-2.652,1.981-4.461,5.128-4.461c0.967,0,1.687,0.1,2.306,0.247
		c0.47,0.1,0.668,0.125,0.866,0.125c0.199,0,0.25,0.049,0.25,0.174c0,0.122-0.101,0.941-0.101,2.626
		c0,0.396-0.049,0.569-0.173,0.569c-0.148,0-0.173-0.123-0.199-0.322c-0.022-0.297-0.172-0.965-0.319-1.239
		c-0.15-0.272-0.819-1.312-3.098-1.312c-1.711,0-3.05,1.065-3.05,2.874c0,1.413,0.646,2.306,3.025,4.164l0.691,0.545
		c2.926,2.304,3.621,3.841,3.621,5.824c0,1.015-0.396,2.897-2.105,4.112c-1.067,0.744-2.405,1.041-3.743,1.041
		C191.793,30.901,190.653,30.728,189.637,30.232z"/>
	<path fill="#3E4830" d="M154.792,6.283l-4.225-2.609V2.976h0.34l-2.006-2.194c0,0,0.171,0.018,0.171-0.402
		c0-0.414-0.409-0.378-0.414-0.378c-0.007,0-0.415-0.036-0.415,0.378c0,0.42,0.171,0.402,0.171,0.402l-2.006,2.194h0.34v0.698
		l-4.21,2.609h0.747l2.224,8.482c0,0-0.246,0.502,0.169,0.643c0.417,0.14,0.417-0.418,0.417-0.418l5.164,0.006
		c0,0-0.022,0.392,0.319,0.412c0.344,0.018,0.566-0.496,0.152-0.68l2.413-8.445H154.792z M145.86,14.639l-2.135-8.355l4.492-0.94
		l0.155,9.088L145.86,14.639z M151.384,14.63l-2.645-0.203l0.166-9.093l4.525,0.949L151.384,14.63z"/>
	<g>
		<path fill="#3E4830" d="M88.182,10.117c0,0.013-0.023,0.021-0.053,0.021l0,0c-0.029,0-0.049-0.008-0.049-0.021V7.332
			c0-0.012,0.02-0.022,0.049-0.022l0,0c0.03,0,0.053,0.011,0.053,0.022V10.117z"/>
		<path fill="#3E4830" d="M87.909,10.117c0,0.013-0.024,0.021-0.052,0.021l0,0c-0.03,0-0.049-0.008-0.049-0.021V7.332
			c0-0.012,0.02-0.022,0.049-0.022l0,0c0.028,0,0.052,0.011,0.052,0.022V10.117z"/>
		<path fill="#3E4830" d="M89.245,5.625l0.686-0.829c0,0-0.48,0.319-0.824,0.539c-0.342,0.223-0.543,0.046-0.984,0.114
			c-0.44,0.066-0.813,0.44-0.897,0.68c-0.22,0.631-0.952,0.907-1.662,0.624c0.756,0.396,1.289-0.009,1.289-0.009
			s0.024,0.124-0.442,0.267c-0.463,0.146-1.994-0.112-1.994-0.112s0.632,0.388,0.784,0.723c0.151,0.334-0.161,1.166-0.161,1.166
			s0.359-0.944,1.105-1.196c0.747-0.252,0.921,0.177,1.485,0.473s1.11-0.062,1.402-0.534c0.29-0.473,0.243-1.637,0.243-1.637
			l0.601-0.634L89.245,5.625z M88.449,6.125c-0.154,0-0.274-0.123-0.274-0.273c0-0.151,0.12-0.275,0.274-0.275
			c0.15,0,0.274,0.124,0.274,0.275C88.723,6.002,88.599,6.125,88.449,6.125z"/>
	</g>
</g>
</svg>
